<?xml version="1.0" encoding="utf-8"?>
<!-- Generator: Adobe Illustrator 22.0.1, SVG Export Plug-In . SVG Version: 6.00 Build 0)  -->
<svg version="1.1" id="Layer_1" xmlns="http://www.w3.org/2000/svg" xmlns:xlink="http://www.w3.org/1999/xlink" x="0px" y="0px"
	 viewBox="0 0 1920 1080" style="enable-background:new 0 0 1920 1080;" xml:space="preserve">
<style type="text/css">
	.st0{fill:#A754B5;}
	.st1{fill:#FF7F83;}
	.st2{fill:#FFFFFF;stroke:#000000;stroke-width:3;stroke-miterlimit:10;}
	.st3{fill:none;}
	.st4{font-family:'Avenir-Light';}
	.st5{font-size:101.16px;}
	.st6{font-size:103.0832px;}
	.st7{fill:#FF1D25;}
	.st8{opacity:0.9;fill:#FF1D25;enable-background:new    ;}
	.st9{opacity:0.9;fill:#9E4148;}
	.st10{fill:#9E4148;}
	.st11{fill:#FFFFFF;}
	.st12{opacity:0.8;fill:#9E4148;}
	.st13{opacity:0.8;fill:none;stroke:#000000;stroke-width:0.5;stroke-miterlimit:10;}
	.st14{fill:#ED8C94;}
	.st15{font-family:'GreatDayPersonalUse';}
	.st16{font-size:233.4173px;}
	.st17{opacity:0.8;fill:#FFFFFF;}
	.st18{fill:#B27980;}
	.st19{opacity:0.15;}
	.st20{font-family:'Lato-Thin';}
	.st21{font-size:139.5098px;}
</style>
<path class="st0" d="M1799.1,0.1H-0.8V1080h1799.9V790.6h120.7V0.1H1799.1z M1041,253.7h243.8v355.6H1041V253.7z M179.3,509.1V159.4
	c0-11.8,9.6-21.4,21.4-21.4h728.1c11.8,0,21.4,9.6,21.4,21.4v349.7c0,11.8-9.6,21.4-21.4,21.4H200.7
	C188.8,530.5,179.3,520.9,179.3,509.1z M1467.8,894.9H342.1V699.4h1125.7V894.9z"/>
<polygon points="1920,1080 0,1080 1920,762.4 "/>
<polygon points="-1,0 1023,0 -1,167.5 "/>
<ellipse class="st1" cx="561.9" cy="626.1" rx="81.3" ry="24.9"/>
<rect x="552.4" y="553.8" class="st1" width="24.5" height="59.3"/>
<path class="st2" d="M1457.7,676.6l-101.1,0c-11.2,0-20.4,9.2-20.4,20.4v207.3c0,11.2,9.2,20.4,20.4,20.4l101.1,0
	c11.2,0,20.4-9.2,20.4-20.4l0-207.3C1478.2,685.8,1469,676.6,1457.7,676.6z M1470.8,898.1l-127.2,0l0-195.4h127.2V898.1z"/>
<path class="st2" d="M1314.6,676.6l-101.1,0c-11.2,0-20.4,9.2-20.4,20.4l0,207.3c0,11.2,9.2,20.4,20.4,20.4l101.1,0
	c11.2,0,20.4-9.2,20.4-20.4l0-207.3C1335,685.8,1325.8,676.6,1314.6,676.6z M1327.7,898.1l-127.2,0l0-195.4h127.2V898.1z"/>
<path class="st2" d="M1172.6,676.6l-101.1,0c-11.2,0-20.4,9.2-20.4,20.4v207.3c0,11.2,9.2,20.4,20.4,20.4l101.1,0
	c11.2,0,20.4-9.2,20.4-20.4l0-207.3C1193.1,685.8,1183.8,676.6,1172.6,676.6z M1185.7,897h-127.2l0-195.4l127.2,0V897z"/>
<path class="st2" d="M1030.6,676.6l-101.1,0c-11.2,0-20.4,9.2-20.4,20.4l0,207.3c0,11.2,9.2,20.4,20.4,20.4l101.1,0
	c11.2,0,20.4-9.2,20.4-20.4V697.1C1051.1,685.8,1041.9,676.6,1030.6,676.6z M1043.7,898.1l-127.2,0l0-195.4h127.2L1043.7,898.1z"/>
<path class="st2" d="M887.5,676.6l-101.1,0c-11.2,0-20.4,9.2-20.4,20.4l0,207.3c0,11.2,9.2,20.4,20.4,20.4l101.1,0
	c11.2,0,20.4-9.2,20.4-20.4l0-207.3C907.9,685.8,898.7,676.6,887.5,676.6z M900.5,898.1l-127.2,0l0-195.4h127.2L900.5,898.1z"/>
<path class="st2" d="M459.2,676.4H358.1c-11.2,0-20.4,9.2-20.4,20.4l0,207.3c0,11.2,9.2,20.4,20.4,20.4h101.1
	c11.2,0,20.4-9.2,20.4-20.4l0-207.3C479.7,685.6,470.5,676.4,459.2,676.4z M472.3,897.9H345.1l0-195.4l127.2,0L472.3,897.9z"/>
<path class="st2" d="M744.4,676.6l-101.1,0c-11.2,0-20.4,9.2-20.4,20.4l0,207.3c0,11.2,9.2,20.4,20.4,20.4l101.1,0
	c11.2,0,20.4-9.2,20.4-20.4l0-207.3C764.8,685.8,755.6,676.6,744.4,676.6z M757.4,898.1l-127.2,0l0-195.4h127.2L757.4,898.1z"/>
<circle cx="407" cy="908.9" r="9.1"/>
<circle cx="692.1" cy="912.3" r="9.1"/>
<circle cx="1119.2" cy="910" r="9.1"/>
<circle cx="1261.2" cy="910" r="9.1"/>
<circle cx="978.4" cy="910" r="9.1"/>
<circle cx="835.2" cy="912.3" r="9.1"/>
<circle cx="1403.2" cy="912.3" r="9.1"/>
<circle cx="1404.3" cy="908.9" r="9.1"/>
<line class="st3" x1="1349.8" y1="777.1" x2="1349.8" y2="776.3"/>
<rect x="399" y="684.2" width="18.7" height="1.7"/>
<text transform="matrix(0.9478 0 0 1 361.915 838.3818)" class="st4 st5">W</text>
<g>
	<path class="st2" d="M602.4,676.6l-101.1,0c-11.2,0-20.4,9.2-20.4,20.4l0,207.3c0,11.2,9.2,20.4,20.4,20.4l101.1,0
		c11.2,0,20.4-9.2,20.4-20.4l0-207.3C622.8,685.8,613.6,676.6,602.4,676.6z M615.4,898.1H488.2l0-195.4h127.2L615.4,898.1z"/>
	<circle cx="552.4" cy="911.2" r="9.1"/>
	<rect x="542.2" y="686.5" width="18.7" height="1.7"/>
	<text transform="matrix(0.9478 0 0 1 522.083 838.3838)" class="st4 st5">E</text>
	<rect x="870.1" y="792" class="st3" width="4.9" height="1.2"/>
</g>
<rect x="684.2" y="687.6" width="18.7" height="1.7"/>
<rect x="1111.3" y="685.4" width="18.7" height="1.7"/>
<text transform="matrix(0.9478 0 0 1 665.2109 838.3838)" class="st4 st5">L</text>
<text transform="matrix(0.9478 0 0 1 1078.0098 838.3838)" class="st4 st5">M</text>
<rect x="1253.3" y="685.4" width="18.7" height="1.7"/>
<text transform="matrix(0.9478 0 0 1 1232.2139 838.3838)" class="st4 st5">E</text>
<rect x="970.4" y="685.4" width="18.7" height="1.7"/>
<text transform="matrix(0.9478 0 0 1 938.9463 836.7656)" class="st4 st6">O</text>
<rect x="828.4" y="688.8" width="18.7" height="1.7"/>
<text transform="matrix(0.9478 0 0 1 800.3877 837.248)" class="st4 st5">C</text>
<rect x="1396.4" y="684.2" width="18.7" height="1.7"/>
<g>
	<polyline class="st7" points="1391.2,754.3 1405.5,775.1 1391.2,833.4 1405.5,848.6 1405.5,748.7 	"/>
	<polyline class="st8" points="1419.8,754.3 1405.5,775.1 1419.8,833.4 1405.5,848.6 1405.5,748.7 	"/>
</g>
<g>
	<path class="st9" d="M228.9,714.6v151.9c27.5,0,49.8-34,49.8-76C278.7,748.7,256.4,714.6,228.9,714.6z"/>
	<path class="st10" d="M228.9,714.6v151.9c-27.5,0-49.8-34-49.8-76C179.1,748.7,201.4,714.6,228.9,714.6z"/>
	<circle class="st11" cx="204" cy="765.5" r="6.2"/>
</g>
<path class="st12" d="M441.9,586.6"/>
<rect x="228.2" y="686.2" class="st13" width="1.4" height="16.8"/>
<rect x="228.2" y="652.5" class="st13" width="1.4" height="16.8"/>
<path class="st13" d="M232.3,636.5l-1.2-0.7c2.9-5.1,7.9-8.8,13.6-10.2l0.3,1.4C239.6,628.2,235,631.7,232.3,636.5z"/>
<rect x="430" y="625" class="st13" width="16.8" height="1.4"/>
<rect x="463.7" y="625" class="st13" width="16.8" height="1.4"/>
<rect x="396.3" y="625" class="st13" width="16.8" height="1.4"/>
<rect x="362.6" y="625" class="st13" width="16.8" height="1.4"/>
<rect x="329" y="625" class="st13" width="16.8" height="1.4"/>
<rect x="295.3" y="625" class="st13" width="16.8" height="1.4"/>
<rect x="261.6" y="625" class="st13" width="16.8" height="1.4"/>
<path class="st14" d="M959.7,101.4H172.7c-20.9,0-37.8,16.6-37.8,37.2v388.2c0,20.5,16.9,37.2,37.8,37.2h787.1
	c20.9,0,37.8-16.6,37.8-37.2V138.6C997.5,118.1,980.6,101.4,959.7,101.4z M950.1,509.9c0,11.4-9.4,20.7-21,20.7H203.3
	c-11.6,0-21-9.3-21-20.7V165.8c0-11.4,9.4-20.7,21-20.7h725.7c11.6,0,21,9.3,21,20.7V509.9z"/>
<circle cx="565.9" cy="123.2" r="10.9"/>
<text transform="matrix(1.0233 0 0 1 228.2031 413.9482)" class="st15 st16">Stephen</text>
<circle class="st11" cx="1216.6" cy="627.4" r="16.8"/>
<g>
	<g>
		<path d="M1283.7,253.1l0.9,356.2l-243,0.6l-0.9-356.2L1283.7,253.1z M1023.3,263.2l0.8,337.1c0.1,26.4,21.6,47.8,48,47.8
			l182.1-0.4c26.4-0.1,47.8-21.6,47.8-48l-0.8-337.1c-0.1-26.4-21.6-47.8-48-47.8l-182.1,0.4
			C1044.7,215.3,1023.3,236.8,1023.3,263.2z"/>
		<circle class="st17" cx="1162.7" cy="236.8" r="9.2"/>
		<circle class="st18" cx="1162.7" cy="628.6" r="14.3"/>
		<path class="st19" d="M1168.5,637.4h-11.6c-1.7,0-3-1.4-3-3v-11.6c0-1.7,1.4-3,3-3h11.6c1.7,0,3,1.4,3,3v11.6
			C1171.5,636,1170.2,637.4,1168.5,637.4z"/>
	</g>
	<text transform="matrix(1 0 0 1 1054.7432 431.438)" class="st20 st21">Ch</text>
	<text transform="matrix(1 0 0 1 1153.8672 552.6836)" class="st20 st21">oi</text>
</g>
</svg>
