<?xml version="1.0" encoding="utf-8"?>
<!-- Generator: Adobe Illustrator 22.0.1, SVG Export Plug-In . SVG Version: 6.00 Build 0)  -->
<svg version="1.1" id="Layer_1" xmlns="http://www.w3.org/2000/svg" xmlns:xlink="http://www.w3.org/1999/xlink" x="0px" y="0px"
	 viewBox="0 0 1920 1080" style="enable-background:new 0 0 1920 1080;" xml:space="preserve">
<style type="text/css">
	.st0{fill:#A754B5;}
	.st1{fill:#999999;stroke:#000000;stroke-width:0.75;stroke-miterlimit:10;}
	.st2{fill:#FFFFFF;stroke:#000000;stroke-width:3;stroke-miterlimit:10;}
	.st3{fill:none;}
	.st4{font-family:'Avenir-Light';}
	.st5{font-size:101.16px;}
	.st6{font-size:103.0832px;}
	.st7{fill:#FF1D25;}
	.st8{opacity:0.9;fill:#FF1D25;enable-background:new    ;}
	.st9{opacity:0.9;fill:#9E4148;stroke:#000000;stroke-width:0.5;stroke-miterlimit:10;enable-background:new    ;}
	.st10{fill:#9E4148;stroke:#000000;stroke-width:0.5;stroke-miterlimit:10;}
	.st11{fill:#FFFFFF;stroke:#000000;stroke-width:0.5;stroke-miterlimit:10;}
	.st12{opacity:0.8;fill:none;stroke:#000000;stroke-width:0.5;stroke-miterlimit:10;enable-background:new    ;}
	.st13{fill:#FFFFFF;}
	.st14{opacity:0.8;fill:#FFFFFF;enable-background:new    ;}
	.st15{fill:#B27980;}
	.st16{opacity:0.15;enable-background:new    ;}
	.st17{font-family:'Lato-Thin';}
	.st18{font-size:139.5098px;}
	.st19{stroke:#000000;stroke-miterlimit:10;}
	.st20{fill:#FFFFFF;stroke:#000000;stroke-width:2;stroke-miterlimit:10;}
	.st21{fill:#999999;stroke:#000000;stroke-miterlimit:10;}
	.st22{font-family:'GreatDayPersonalUse';}
	.st23{font-size:211.5345px;}
</style>
<path class="st0" d="M1799.1,0.1H-0.8V1080h1799.9V790.6h120.7V0.1H1799.1z M1041,253.7h243.8v355.6H1041V253.7z M179.3,509.1V159.4
	c0-11.8,9.6-21.4,21.4-21.4h728.1c11.8,0,21.4,9.6,21.4,21.4v349.7c0,11.8-9.6,21.4-21.4,21.4H200.7
	C188.8,530.5,179.3,520.9,179.3,509.1z M1467.8,894.9H342.1V699.4h1125.7L1467.8,894.9L1467.8,894.9z"/>
<path class="st1" d="M576.8,601.6v-50.3h-30.7v50.4c-37.4,2.2-65.6,12.3-65.6,24.4c0,13.8,36.4,24.9,81.3,24.9s81.3-11.1,81.3-24.9
	C643.2,613.9,614.6,603.8,576.8,601.6z"/>
<polygon points="1920,1080 0,1080 1920,762.4 "/>
<polygon points="-1,0 1023,0 -1,167.5 "/>
<path class="st2" d="M1457.7,676.6h-101.1c-11.2,0-20.4,9.2-20.4,20.4v207.3c0,11.2,9.2,20.4,20.4,20.4h101.1
	c11.2,0,20.4-9.2,20.4-20.4V697C1478.2,685.8,1469,676.6,1457.7,676.6z M1470.8,898.1h-127.2V702.7h127.2V898.1z"/>
<path class="st2" d="M1314.6,676.6h-101.1c-11.2,0-20.4,9.2-20.4,20.4v207.3c0,11.2,9.2,20.4,20.4,20.4h101.1
	c11.2,0,20.4-9.2,20.4-20.4V697C1335,685.8,1325.8,676.6,1314.6,676.6z M1327.7,898.1h-127.2V702.7h127.2V898.1z"/>
<path class="st2" d="M1172.6,676.6h-101.1c-11.2,0-20.4,9.2-20.4,20.4v207.3c0,11.2,9.2,20.4,20.4,20.4h101.1
	c11.2,0,20.4-9.2,20.4-20.4V697C1193.1,685.8,1183.8,676.6,1172.6,676.6z M1185.7,897h-127.2V701.6h127.2V897z"/>
<path class="st2" d="M1030.6,676.6H929.5c-11.2,0-20.4,9.2-20.4,20.4v207.3c0,11.2,9.2,20.4,20.4,20.4h101.1
	c11.2,0,20.4-9.2,20.4-20.4V697.1C1051.1,685.8,1041.9,676.6,1030.6,676.6z M1043.7,898.1H916.5V702.7h127.2V898.1z"/>
<path class="st2" d="M887.5,676.6H786.4c-11.2,0-20.4,9.2-20.4,20.4v207.3c0,11.2,9.2,20.4,20.4,20.4h101.1
	c11.2,0,20.4-9.2,20.4-20.4V697C907.9,685.8,898.7,676.6,887.5,676.6z M900.5,898.1H773.3V702.7h127.2V898.1z"/>
<path class="st2" d="M459.2,676.4H358.1c-11.2,0-20.4,9.2-20.4,20.4v207.3c0,11.2,9.2,20.4,20.4,20.4h101.1
	c11.2,0,20.4-9.2,20.4-20.4V696.8C479.7,685.6,470.5,676.4,459.2,676.4z M472.3,897.9H345.1V702.5h127.2V897.9z"/>
<path class="st2" d="M744.4,676.6H643.3c-11.2,0-20.4,9.2-20.4,20.4v207.3c0,11.2,9.2,20.4,20.4,20.4h101.1
	c11.2,0,20.4-9.2,20.4-20.4V697C764.8,685.8,755.6,676.6,744.4,676.6z M757.4,898.1H630.2V702.7h127.2V898.1z"/>
<circle cx="407" cy="908.9" r="9.1"/>
<circle cx="692.1" cy="912.3" r="9.1"/>
<circle cx="1119.2" cy="910" r="9.1"/>
<circle cx="1261.2" cy="910" r="9.1"/>
<circle cx="978.4" cy="910" r="9.1"/>
<circle cx="835.2" cy="912.3" r="9.1"/>
<circle cx="1403.2" cy="912.3" r="9.1"/>
<circle cx="1404.3" cy="908.9" r="9.1"/>
<line class="st3" x1="1349.8" y1="777.1" x2="1349.8" y2="776.3"/>
<rect x="399" y="684.2" width="18.7" height="1.7"/>
<text transform="matrix(0.9478 0 0 1 361.915 838.3818)" class="st4 st5">W</text>
<g>
	<path class="st2" d="M602.4,676.6H501.3c-11.2,0-20.4,9.2-20.4,20.4v207.3c0,11.2,9.2,20.4,20.4,20.4h101.1
		c11.2,0,20.4-9.2,20.4-20.4V697C622.8,685.8,613.6,676.6,602.4,676.6z M615.4,898.1H488.2V702.7h127.2V898.1z"/>
	<circle cx="552.4" cy="911.2" r="9.1"/>
	<rect x="542.2" y="686.5" width="18.7" height="1.7"/>
	<text transform="matrix(0.9478 0 0 1 522.083 838.3838)" class="st4 st5">E</text>
	<rect x="870.1" y="792" class="st3" width="4.9" height="1.2"/>
</g>
<rect x="684.2" y="687.6" width="18.7" height="1.7"/>
<rect x="1111.3" y="685.4" width="18.7" height="1.7"/>
<text transform="matrix(0.9478 0 0 1 665.2109 838.3838)" class="st4 st5">L</text>
<text transform="matrix(0.9478 0 0 1 1078.0098 838.3838)" class="st4 st5">M</text>
<rect x="1253.3" y="685.4" width="18.7" height="1.7"/>
<text transform="matrix(0.9478 0 0 1 1232.2139 838.3838)" class="st4 st5">E</text>
<rect x="970.4" y="685.4" width="18.7" height="1.7"/>
<text transform="matrix(0.9478 0 0 1 938.9463 836.7656)" class="st4 st6">O</text>
<rect x="828.4" y="688.8" width="18.7" height="1.7"/>
<text transform="matrix(0.9478 0 0 1 800.3877 837.248)" class="st4 st5">C</text>
<rect x="1396.4" y="684.2" width="18.7" height="1.7"/>
<g>
	<polyline class="st7" points="1391.2,754.3 1405.5,775.1 1391.2,833.4 1405.5,848.6 1405.5,748.7 	"/>
	<polyline class="st8" points="1419.8,754.3 1405.5,775.1 1419.8,833.4 1405.5,848.6 1405.5,748.7 	"/>
</g>
<g>
	<path class="st9" d="M228.9,714.6v151.9c27.5,0,49.8-34,49.8-76C278.7,748.7,256.4,714.6,228.9,714.6z"/>
	<path class="st10" d="M228.9,714.6v151.9c-27.5,0-49.8-34-49.8-76C179.1,748.7,201.4,714.6,228.9,714.6z"/>
	<circle class="st11" cx="204" cy="765.5" r="6.2"/>
</g>
<rect x="228.2" y="686.2" class="st12" width="1.4" height="16.8"/>
<rect x="228.2" y="652.5" class="st12" width="1.4" height="16.8"/>
<path class="st12" d="M232.3,636.5l-1.2-0.7c2.9-5.1,7.9-8.8,13.6-10.2l0.3,1.4C239.6,628.2,235,631.7,232.3,636.5z"/>
<rect x="430" y="625" class="st12" width="16.8" height="1.4"/>
<rect x="463.7" y="625" class="st12" width="16.8" height="1.4"/>
<rect x="396.3" y="625" class="st12" width="16.8" height="1.4"/>
<rect x="362.6" y="625" class="st12" width="16.8" height="1.4"/>
<rect x="329" y="625" class="st12" width="16.8" height="1.4"/>
<rect x="295.3" y="625" class="st12" width="16.8" height="1.4"/>
<rect x="261.6" y="625" class="st12" width="16.8" height="1.4"/>
<circle class="st13" cx="1216.6" cy="627.4" r="16.8"/>
<g>
	<g>
		<path d="M1283.7,253.1l0.9,356.2l-243,0.6l-0.9-356.2L1283.7,253.1z M1023.3,263.2l0.8,337.1c0.1,26.4,21.6,47.8,48,47.8
			l182.1-0.4c26.4-0.1,47.8-21.6,47.8-48l-0.8-337.1c-0.1-26.4-21.6-47.8-48-47.8l-182.1,0.4
			C1044.7,215.3,1023.3,236.8,1023.3,263.2z"/>
		<circle class="st14" cx="1162.7" cy="236.8" r="9.2"/>
		<circle class="st15" cx="1162.7" cy="628.6" r="14.3"/>
		<path class="st16" d="M1168.5,637.4h-11.6c-1.7,0-3-1.4-3-3v-11.6c0-1.7,1.4-3,3-3h11.6c1.7,0,3,1.4,3,3v11.6
			C1171.5,636,1170.2,637.4,1168.5,637.4z"/>
	</g>
	<text transform="matrix(1 0 0 1 1054.7432 431.438)" class="st17 st18">Ch</text>
	<text transform="matrix(1 0 0 1 1153.8672 552.6836)" class="st17 st18">oi</text>
</g>
<g>
	<path class="st19" d="M950.2,531h-773V158.5c0-13.7,11.1-24.7,24.7-24.7h723.6c13.7,0,24.7,11.1,24.7,24.7V531z"/>
	<rect x="207.1" y="163.3" class="st20" width="713.3" height="338.2"/>
	<path class="st21" d="M202.1,571.6h723.3c13.7,0,24.9-11,24.9-24.6v-16h-773v16C177.2,560.6,188.3,571.6,202.1,571.6z"/>
</g>
<text transform="matrix(1.0233 0 0 1 261.6001 400.6148)" class="st22 st23">Stephen</text>
</svg>
