<?xml version="1.0" encoding="utf-8"?>
<!-- Generator: Adobe Illustrator 22.0.1, SVG Export Plug-In . SVG Version: 6.00 Build 0)  -->
<svg version="1.1" id="Layer_1" xmlns="http://www.w3.org/2000/svg" xmlns:xlink="http://www.w3.org/1999/xlink" x="0px" y="0px"
	 viewBox="0 0 1366 768" style="enable-background:new 0 0 1366 768;" xml:space="preserve">
<style type="text/css">
	.st0{fill:#A754B5;}
	.st1{fill:#FF7F83;}
	.st2{display:none;opacity:0.15;}
	.st3{fill:#FFFFFF;stroke:#000000;stroke-width:3;stroke-miterlimit:10;}
	.st4{fill:none;}
	.st5{font-family:'Avenir-Light';}
	.st6{font-size:71.9398px;}
	.st7{font-size:73.3075px;}
	.st8{fill:#FF1D25;}
	.st9{opacity:0.9;fill:#FF1D25;enable-background:new    ;}
	.st10{opacity:0.9;fill:#9E4148;}
	.st11{fill:#9E4148;}
	.st12{fill:#FFFFFF;}
	.st13{opacity:0.8;fill:#9E4148;}
	.st14{opacity:0.8;fill:none;stroke:#000000;stroke-width:0.5;stroke-miterlimit:10;}
	.st15{fill:#ED8C94;}
	.st16{font-family:'GreatDayPersonalUse';}
	.st17{font-size:165.9944px;}
	.st18{opacity:0.8;fill:#FFFFFF;}
	.st19{fill:#B27980;}
	.st20{opacity:0.15;}
	.st21{font-family:'Lato-Thin';}
	.st22{font-size:99.2122px;}
	.st23{display:none;fill:#B61DCC;}
</style>
<path class="st0" d="M1280.2,0.1H0.2v768h1280V562.3h85.8V0.1H1280.2z M741.1,180.4h173.4v252.9H741.1V180.4z M128.2,362V113.4
	c0-8.4,6.8-15.2,15.2-15.2h517.8c8.4,0,15.2,6.8,15.2,15.2V362c0,8.4-6.8,15.2-15.2,15.2H143.5C135.1,377.3,128.2,370.4,128.2,362z
	 M1044.6,636.5H244.1V497.4h800.5V636.5z"/>
<ellipse class="st1" cx="400.4" cy="445.3" rx="57.8" ry="17.7"/>
<rect x="393.6" y="393.9" class="st1" width="17.4" height="42.1"/>
<polyline class="st2" points="134,374.9 675,97.8 675,374.9 "/>
<polygon points="1366,768 0,768 1366,543 "/>
<path class="st3" d="M1037.4,481.2l-71.9,0c-8,0-14.5,6.5-14.5,14.5l0,147.4c0,8,6.5,14.5,14.5,14.5h71.9c8,0,14.5-6.5,14.5-14.5
	l0-147.4C1052,487.7,1045.4,481.2,1037.4,481.2z M1046.7,638.7l-90.5,0l0-138.9l90.5,0L1046.7,638.7z"/>
<path class="st3" d="M935.6,481.2l-71.9,0c-8,0-14.5,6.5-14.5,14.5l0,147.4c0,8,6.5,14.5,14.5,14.5h71.9c8,0,14.5-6.5,14.5-14.5
	l0-147.4C950.2,487.7,943.6,481.2,935.6,481.2z M944.9,638.7l-90.5,0V499.8l90.5,0L944.9,638.7z"/>
<path class="st3" d="M834.7,481.2l-71.9,0c-8,0-14.5,6.5-14.5,14.5l0,147.4c0,8,6.5,14.5,14.5,14.5h71.9c8,0,14.5-6.5,14.5-14.5
	l0-147.4C849.2,487.7,842.7,481.2,834.7,481.2z M844,637.9h-90.5V499l90.5,0L844,637.9z"/>
<path class="st3" d="M733.7,481.2l-71.9,0c-8,0-14.5,6.5-14.5,14.5l0,147.4c0,8,6.5,14.5,14.5,14.5h71.9c8,0,14.5-6.5,14.5-14.5
	l0-147.4C748.2,487.7,741.7,481.2,733.7,481.2z M743,638.7l-90.5,0V499.8l90.5,0L743,638.7z"/>
<path class="st3" d="M631.9,481.2l-71.9,0c-8,0-14.5,6.5-14.5,14.5v147.4c0,8,6.5,14.5,14.5,14.5h71.9c8,0,14.5-6.5,14.5-14.5V495.7
	C646.4,487.7,639.9,481.2,631.9,481.2z M641.2,638.7l-90.5,0l0-138.9l90.5,0L641.2,638.7z"/>
<path class="st3" d="M327.3,481l-71.9,0c-8,0-14.5,6.5-14.5,14.5l0,147.4c0,8,6.5,14.5,14.5,14.5h71.9c8,0,14.5-6.5,14.5-14.5
	l0-147.4C341.9,487.6,335.3,481,327.3,481z M336.6,638.6l-90.5,0l0-138.9l90.5,0L336.6,638.6z"/>
<path class="st3" d="M530.1,481.2l-71.9,0c-8,0-14.5,6.5-14.5,14.5l0,147.4c0,8,6.5,14.5,14.5,14.5h71.9c8,0,14.5-6.5,14.5-14.5
	l0-147.4C544.7,487.7,538.1,481.2,530.1,481.2z M539.4,638.7l-90.5,0l0-138.9l90.5,0V638.7z"/>
<circle cx="290.2" cy="646.4" r="6.5"/>
<circle cx="493" cy="648.8" r="6.5"/>
<circle cx="796.7" cy="647.2" r="6.5"/>
<circle cx="897.7" cy="647.2" r="6.5"/>
<circle cx="696.5" cy="647.2" r="6.5"/>
<circle cx="594.7" cy="648.8" r="6.5"/>
<circle cx="998.6" cy="648.8" r="6.5"/>
<circle cx="999.5" cy="646.4" r="6.5"/>
<line class="st4" x1="960.7" y1="552.7" x2="960.7" y2="552.1"/>
<rect x="284.5" y="486.6" width="13.3" height="1.2"/>
<text transform="matrix(0.9478 0 0 1 258.1411 596.2305)" class="st5 st6">W</text>
<g>
	<path class="st3" d="M429.1,481.2l-71.9,0c-8,0-14.5,6.5-14.5,14.5l0,147.4c0,8,6.5,14.5,14.5,14.5l71.9,0c8,0,14.5-6.5,14.5-14.5
		l0-147.4C443.7,487.7,437.1,481.2,429.1,481.2z M438.4,638.7h-90.5l0-138.9l90.5,0L438.4,638.7z"/>
	<circle cx="393.6" cy="648" r="6.5"/>
	<rect x="386.3" y="488.2" width="13.3" height="1.2"/>
	<text transform="matrix(0.9478 0 0 1 372.044 596.2315)" class="st5 st6">E</text>
	<rect x="619.5" y="563.3" class="st4" width="3.5" height="0.9"/>
</g>
<rect x="487.3" y="489" width="13.3" height="1.2"/>
<rect x="791" y="487.4" width="13.3" height="1.2"/>
<text transform="matrix(0.9478 0 0 1 473.8291 596.2315)" class="st5 st6">L</text>
<text transform="matrix(0.9478 0 0 1 767.3906 596.2315)" class="st5 st6">M</text>
<rect x="892" y="487.4" width="13.3" height="1.2"/>
<text transform="matrix(0.9478 0 0 1 877.0527 596.2315)" class="st5 st6">E</text>
<rect x="690.9" y="487.4" width="13.3" height="1.2"/>
<text transform="matrix(0.9478 0 0 1 668.4961 595.0811)" class="st5 st7">O</text>
<rect x="589.9" y="489.8" width="13.3" height="1.2"/>
<text transform="matrix(0.9478 0 0 1 569.96 595.4239)" class="st5 st6">C</text>
<rect x="993.8" y="486.6" width="13.3" height="1.2"/>
<g>
	<polyline class="st8" points="990.1,536.4 1000.3,551.2 990.1,592.7 1000.3,603.5 1000.3,532.5 	"/>
	<polyline class="st9" points="1010.4,536.4 1000.3,551.2 1010.4,592.7 1000.3,603.5 1000.3,532.5 	"/>
</g>
<g>
	<path class="st10" d="M163.6,508.2v108c19.5,0,35.4-24.2,35.4-54S183.1,508.2,163.6,508.2z"/>
	<path class="st11" d="M163.6,508.2v108c-19.5,0-35.4-24.2-35.4-54S144,508.2,163.6,508.2z"/>
	<circle class="st12" cx="145.9" cy="544.4" r="4.4"/>
</g>
<path class="st13" d="M315,417.2"/>
<rect x="163.1" y="488" class="st14" width="1" height="12"/>
<rect x="163.1" y="464" class="st14" width="1" height="12"/>
<path class="st14" d="M165.9,452.6l-0.9-0.5c2.1-3.6,5.6-6.3,9.6-7.2l0.2,1C171.2,446.8,167.9,449.2,165.9,452.6z"/>
<rect x="306.6" y="444.5" class="st14" width="12" height="1"/>
<rect x="330.5" y="444.5" class="st14" width="12" height="1"/>
<rect x="282.6" y="444.5" class="st14" width="12" height="1"/>
<rect x="258.7" y="444.5" class="st14" width="12" height="1"/>
<rect x="234.7" y="444.5" class="st14" width="12" height="1"/>
<rect x="210.7" y="444.5" class="st14" width="12" height="1"/>
<rect x="186.8" y="444.5" class="st14" width="12" height="1"/>
<polygon points="0,0 670,0 0,110 "/>
<path class="st15" d="M683.3,72.1H123.5c-14.9,0-26.9,11.8-26.9,26.4v276.1c0,14.6,12,26.4,26.9,26.4h559.7
	c14.9,0,26.9-11.8,26.9-26.4V98.6C710.2,84,698.1,72.1,683.3,72.1z M676.4,362.6c0,8.1-6.7,14.7-15,14.7H145.4
	c-8.3,0-15-6.6-15-14.7V117.9c0-8.1,6.7-14.7,15-14.7h516.1c8.3,0,15,6.6,15,14.7V362.6z"/>
<circle cx="403.2" cy="80.5" r="7.8"/>
<text transform="matrix(1.0233 0 0 1 163.0518 303.6401)" class="st16 st17">Stephen</text>
<circle class="st12" cx="866" cy="446.2" r="12"/>
<g>
	<g>
		<path d="M913.7,180l0.6,253.3l-172.8,0.4l-0.6-253.3L913.7,180z M728.5,187.2l0.6,239.7c0,18.8,15.3,34,34.1,34l129.5-0.3
			c18.8,0,34-15.3,34-34.1l-0.6-239.7c0-18.8-15.3-34-34.1-34l-129.5,0.3C743.7,153.1,728.5,168.4,728.5,187.2z"/>
		<circle class="st18" cx="827.6" cy="168.4" r="6.6"/>
		<circle class="st19" cx="827.6" cy="447" r="10.2"/>
		<path class="st20" d="M831.7,453.3h-8.2c-1.2,0-2.2-1-2.2-2.2v-8.2c0-1.2,1-2.2,2.2-2.2h8.2c1.2,0,2.2,1,2.2,2.2v8.2
			C833.9,452.3,832.9,453.3,831.7,453.3z"/>
	</g>
	<text transform="matrix(1 0 0 1 750.8448 306.8329)" class="st21 st22">Ch</text>
	<text transform="matrix(1 0 0 1 821.3361 393.0566)" class="st21 st22">oi</text>
</g>
<rect x="239.4" y="548.1" class="st23" width="814.2" height="26.9"/>
</svg>
